<svg xmlns="http://www.w3.org/2000/svg" viewBox="0 0 623.62 255.12"><defs><style>.cls-1{fill:#fff;}.cls-2{fill:#1d1d1b;}</style></defs><g id="BG"><rect class="cls-1" width="623.62" height="255.12"/></g><g id="Logo"><path class="cls-2" d="M90.12,115.69h14.24V101.45H90.12Zm-57,19h71.2V120.44h-19V96.7h19V82.46H14.17V96.7h57v23.74h-38Zm-19,38h90.19V139.43H28.41V115.69h38V101.45H14.17v52.22h76v4.74H14.17Zm148.11-62.94c0-5.69,5.14-10.18,15.87-10.18,8.32,0,15.54,4.16,18.17,8.54l11.48-5.91C202,90.36,189.64,87,177.71,87c-14.12.11-29.64,6.56-29.64,22.31,0,17.19,14.42,21.34,30.08,23.21,10.18,1.09,17.73,4,17.73,11.26,0,8.32-8.54,11.5-17.62,11.5-9.31,0-18.17-3.72-21.56-12.15l-12,6.24c5.69,14,17.71,18.8,33.37,18.8,17.07,0,32.16-7.32,32.16-24.39,0-18.27-14.87-22.43-30.85-24.4-9.19-1.1-17.07-3-17.07-9.63m70.15,56.46h14.32V89.49H232.43Zm106.77-12V121.88H306.39v12.89H326v13.58a25.47,25.47,0,0,1-17.3,6.13c-19,0-26.37-13-26.37-25.61,0-15.75,10-28.24,26.37-28.24a29.32,29.32,0,0,1,19.48,7.67l9-9.19a40.46,40.46,0,0,0-28.45-11.7c-27,0-40.48,19.9-40.48,41.46,0,20.14,11.7,39.06,40.48,39.06,13.47,0,23-5.14,30.52-13.78m75,12h14.32V89.71H414.17V122H376.51V89.71H362.08v76.47h14.43V135.32h37.66Zm106-32.6V89.71H505.86v43.87c0,13.13-6.79,21.12-18.72,21.12s-19.81-7.33-19.81-21.12V89.71H453v43.87c0,23.09,15.63,34.24,34,34.24,19.26,0,33.15-11.59,33.15-34.24m61.16-3.17H559.68V103.26h21.66c18.38,0,18.49,27.15,0,27.15m0-40.92c-12-.11-24.07,0-36.09,0v76.69h14.43V143.64h21.66c37.53,0,37.42-54.15,0-54.15"/></g></svg>